<mxfile host="Electron" modified="2024-04-06T22:22:35.345Z" agent="Mozilla/5.0 (Macintosh; Intel Mac OS X 10_15_7) AppleWebKit/537.36 (KHTML, like Gecko) draw.io/24.1.0 Chrome/120.0.6099.109 Electron/28.1.0 Safari/537.36" etag="VgtnDY3YpRfuclxDRCSv" version="24.1.0" type="device">
  <diagram name="Страница — 1" id="Eor_7kOFJwuVsaAqe-5r">
    <mxGraphModel dx="869" dy="674" grid="1" gridSize="10" guides="1" tooltips="1" connect="1" arrows="1" fold="1" page="1" pageScale="1" pageWidth="827" pageHeight="1169" math="0" shadow="0">
      <root>
        <mxCell id="0" />
        <mxCell id="1" parent="0" />
        <mxCell id="aM9SU7QAF97bAIuShuWj-1" style="edgeStyle=orthogonalEdgeStyle;curved=1;rounded=0;orthogonalLoop=1;jettySize=auto;html=1;exitX=0.5;exitY=1;exitDx=0;exitDy=0;entryX=0.5;entryY=0;entryDx=0;entryDy=0;strokeWidth=2;" parent="1" source="5N5q9qp-K08lSnOSJCgD-3" target="5N5q9qp-K08lSnOSJCgD-8" edge="1">
          <mxGeometry relative="1" as="geometry" />
        </mxCell>
        <mxCell id="5N5q9qp-K08lSnOSJCgD-3" value="Ф 1,3" style="ellipse;whiteSpace=wrap;html=1;aspect=fixed;fontSize=20;strokeWidth=2;" parent="1" vertex="1">
          <mxGeometry x="334" y="160" width="80" height="80" as="geometry" />
        </mxCell>
        <mxCell id="5N5q9qp-K08lSnOSJCgD-4" value="&lt;span style=&quot;color: rgb(0, 0, 0); font-family: Helvetica; font-size: 20px; font-style: normal; font-variant-ligatures: normal; font-variant-caps: normal; font-weight: 400; letter-spacing: normal; orphans: 2; text-align: center; text-indent: 0px; text-transform: none; widows: 2; word-spacing: 0px; -webkit-text-stroke-width: 0px; white-space: normal; background-color: rgb(251, 251, 251); text-decoration-thickness: initial; text-decoration-style: initial; text-decoration-color: initial; float: none; display: inline !important;&quot;&gt;Ф 2&lt;/span&gt;" style="ellipse;whiteSpace=wrap;html=1;aspect=fixed;fontSize=20;strokeWidth=2;" parent="1" vertex="1">
          <mxGeometry x="494" y="160" width="80" height="80" as="geometry" />
        </mxCell>
        <mxCell id="5N5q9qp-K08lSnOSJCgD-7" value="Т 1" style="ellipse;whiteSpace=wrap;html=1;aspect=fixed;fontSize=20;strokeWidth=2;" parent="1" vertex="1">
          <mxGeometry x="334" y="320" width="80" height="80" as="geometry" />
        </mxCell>
        <mxCell id="5N5q9qp-K08lSnOSJCgD-8" value="&lt;span style=&quot;color: rgb(0, 0, 0); font-family: Helvetica; font-size: 20px; font-style: normal; font-variant-ligatures: normal; font-variant-caps: normal; font-weight: 400; letter-spacing: normal; orphans: 2; text-align: center; text-indent: 0px; text-transform: none; widows: 2; word-spacing: 0px; -webkit-text-stroke-width: 0px; white-space: normal; background-color: rgb(251, 251, 251); text-decoration-thickness: initial; text-decoration-style: initial; text-decoration-color: initial; float: none; display: inline !important;&quot;&gt;Т 2&lt;/span&gt;" style="ellipse;whiteSpace=wrap;html=1;aspect=fixed;fontSize=20;strokeWidth=2;" parent="1" vertex="1">
          <mxGeometry x="494" y="320" width="80" height="80" as="geometry" />
        </mxCell>
        <mxCell id="5N5q9qp-K08lSnOSJCgD-9" value="&lt;span style=&quot;color: rgb(0, 0, 0); font-family: Helvetica; font-size: 20px; font-style: normal; font-variant-ligatures: normal; font-variant-caps: normal; font-weight: 400; letter-spacing: normal; orphans: 2; text-align: center; text-indent: 0px; text-transform: none; widows: 2; word-spacing: 0px; -webkit-text-stroke-width: 0px; white-space: normal; background-color: rgb(251, 251, 251); text-decoration-thickness: initial; text-decoration-style: initial; text-decoration-color: initial; float: none; display: inline !important;&quot;&gt;Т m&lt;/span&gt;" style="ellipse;whiteSpace=wrap;html=1;aspect=fixed;fontSize=20;strokeWidth=2;" parent="1" vertex="1">
          <mxGeometry x="654" y="320" width="80" height="80" as="geometry" />
        </mxCell>
        <mxCell id="5N5q9qp-K08lSnOSJCgD-10" value="..." style="text;html=1;align=center;verticalAlign=middle;whiteSpace=wrap;rounded=0;fontSize=20;strokeWidth=2;" parent="1" vertex="1">
          <mxGeometry x="584" y="345" width="60" height="30" as="geometry" />
        </mxCell>
        <mxCell id="5N5q9qp-K08lSnOSJCgD-11" value="&lt;span style=&quot;color: rgb(0, 0, 0); font-family: Helvetica; font-size: 20px; font-style: normal; font-variant-ligatures: normal; font-variant-caps: normal; font-weight: 400; letter-spacing: normal; orphans: 2; text-align: center; text-indent: 0px; text-transform: none; widows: 2; word-spacing: 0px; -webkit-text-stroke-width: 0px; white-space: normal; background-color: rgb(251, 251, 251); text-decoration-thickness: initial; text-decoration-style: initial; text-decoration-color: initial; float: none; display: inline !important;&quot;&gt;Ф n&lt;/span&gt;" style="ellipse;whiteSpace=wrap;html=1;aspect=fixed;fontSize=20;strokeWidth=2;" parent="1" vertex="1">
          <mxGeometry x="654" y="160" width="80" height="80" as="geometry" />
        </mxCell>
        <mxCell id="5N5q9qp-K08lSnOSJCgD-12" value="..." style="text;html=1;align=center;verticalAlign=middle;whiteSpace=wrap;rounded=0;fontSize=20;strokeWidth=2;" parent="1" vertex="1">
          <mxGeometry x="594" y="185" width="60" height="30" as="geometry" />
        </mxCell>
        <mxCell id="5N5q9qp-K08lSnOSJCgD-13" value="" style="endArrow=classic;html=1;rounded=0;exitX=0.5;exitY=1;exitDx=0;exitDy=0;entryX=0.5;entryY=0;entryDx=0;entryDy=0;fontSize=20;strokeWidth=2;" parent="1" source="5N5q9qp-K08lSnOSJCgD-3" target="5N5q9qp-K08lSnOSJCgD-7" edge="1">
          <mxGeometry width="50" height="50" relative="1" as="geometry">
            <mxPoint x="534" y="370" as="sourcePoint" />
            <mxPoint x="584" y="320" as="targetPoint" />
          </mxGeometry>
        </mxCell>
        <mxCell id="5N5q9qp-K08lSnOSJCgD-14" value="" style="endArrow=classic;html=1;rounded=0;exitX=0.5;exitY=1;exitDx=0;exitDy=0;entryX=0.5;entryY=0;entryDx=0;entryDy=0;fontSize=20;strokeWidth=2;" parent="1" source="5N5q9qp-K08lSnOSJCgD-4" target="5N5q9qp-K08lSnOSJCgD-8" edge="1">
          <mxGeometry width="50" height="50" relative="1" as="geometry">
            <mxPoint x="534" y="370" as="sourcePoint" />
            <mxPoint x="584" y="320" as="targetPoint" />
          </mxGeometry>
        </mxCell>
        <mxCell id="5N5q9qp-K08lSnOSJCgD-16" value="" style="endArrow=classic;html=1;rounded=0;exitX=0.5;exitY=1;exitDx=0;exitDy=0;entryX=0.5;entryY=0;entryDx=0;entryDy=0;fontSize=20;strokeWidth=2;" parent="1" source="5N5q9qp-K08lSnOSJCgD-11" target="5N5q9qp-K08lSnOSJCgD-9" edge="1">
          <mxGeometry width="50" height="50" relative="1" as="geometry">
            <mxPoint x="534" y="370" as="sourcePoint" />
            <mxPoint x="584" y="320" as="targetPoint" />
          </mxGeometry>
        </mxCell>
        <mxCell id="5N5q9qp-K08lSnOSJCgD-17" value="Слой файлов исходного кода" style="text;html=1;align=center;verticalAlign=middle;whiteSpace=wrap;rounded=0;fontSize=20;" parent="1" vertex="1">
          <mxGeometry x="112" y="185" width="180" height="30" as="geometry" />
        </mxCell>
        <mxCell id="5N5q9qp-K08lSnOSJCgD-18" value="Слой&amp;nbsp;&lt;div&gt;требований к ПО&lt;/div&gt;" style="text;html=1;align=center;verticalAlign=middle;whiteSpace=wrap;rounded=0;fontSize=20;" parent="1" vertex="1">
          <mxGeometry x="112" y="345" width="180" height="30" as="geometry" />
        </mxCell>
      </root>
    </mxGraphModel>
  </diagram>
</mxfile>
